<?xml version="1.0" encoding="UTF-8"?>
<!DOCTYPE svg PUBLIC "-//W3C//DTD SVG 1.1//EN" "http://www.w3.org/Graphics/SVG/1.1/DTD/svg11.dtd">
<!-- Creator: CorelDRAW 2019 (64 Bit) -->
<svg xmlns="http://www.w3.org/2000/svg" xml:space="preserve" width="154.437mm" height="55.3383mm" version="1.1" style="shape-rendering:geometricPrecision; text-rendering:geometricPrecision; image-rendering:optimizeQuality; fill-rule:evenodd; clip-rule:evenodd"
viewBox="0 0 15264.95 5469.78"
 xmlns:xlink="http://www.w3.org/1999/xlink"
 xmlns:xodm="http://www.corel.com/coreldraw/odm/2003">
 <defs>
  <style type="text/css">
   <![CDATA[
    .fil1 {fill:black}
    .fil0 {fill:black;fill-rule:nonzero}
   ]]>
  </style>
 </defs>
 <g id="Camada_x0020_1">
  <metadata id="CorelCorpID_0Corel-Layer"/>
  <g id="_2206985933344">
   <polygon class="fil0" points="2008.55,2007.74 200.86,2007.74 200.86,1806.88 -0,1806.88 -0,200.05 200.86,200.05 200.86,0 2008.55,0 2008.55,402.51 803.42,402.51 803.42,1605.22 1205.13,1605.22 1205.13,1205.13 1004.27,1205.13 1004.27,802.61 2008.55,802.61 "/>
   <path id="1" class="fil0" d="M4418.8 2007.74l-803.42 0 0 -802.61 -401.71 0 0 802.61 -803.42 0 0 -1807.69 200.86 0 0 -200.05 1606.83 0 0 200.05 200.86 0 0 1807.69zm-803.42 -1205.13l0 -400.1 -401.71 0 0 400.1 401.71 0z"/>
   <polygon id="2" class="fil0" points="8034.19,2007.74 7230.77,2007.74 7230.77,402.51 6829.06,402.51 6829.06,2007.74 6025.64,2007.74 6025.64,402.51 5623.93,402.51 5623.93,2007.74 4820.51,2007.74 4820.51,0 7833.33,0 7833.33,200.05 8034.19,200.05 "/>
   <polygon id="3" class="fil0" points="10444.44,2007.74 8636.75,2007.74 8636.75,1806.88 8435.89,1806.88 8435.89,200.05 8636.75,200.05 8636.75,0 10444.44,0 10444.44,402.51 9239.32,402.51 9239.32,802.61 9841.88,802.61 9841.88,1205.13 9239.32,1205.13 9239.32,1605.22 10444.44,1605.22 "/>
   <path id="4" class="fil0" d="M12854.7 2007.74l-803.42 0 0 -802.61 -401.71 0 0 802.61 -803.42 0 0 -2007.74 1807.69 0 0 200.05 200.86 0 0 602.56 -200.86 0 0 402.52 200.86 0 0 802.61zm-803.42 -1205.13l0 -400.1 -401.71 0 0 400.1 401.71 0z"/>
   <polygon id="5" class="fil0" points="15264.95,1806.88 15064.1,1806.88 15064.1,2007.74 13256.4,2007.74 13256.4,1605.22 14461.53,1605.22 14461.53,1205.13 13457.26,1205.13 13457.26,1003.47 13256.4,1003.47 13256.4,200.05 13457.26,200.05 13457.26,0 15264.95,0 15264.95,402.51 14059.83,402.51 14059.83,802.61 15064.1,802.61 15064.1,1003.47 15264.95,1003.47 "/>
   <polygon class="fil0" points="2618.3,5469.78 1570.97,5469.78 1570.97,4423.51 1047.32,4423.51 1047.32,5469.78 -0,5469.78 -0,2852.53 1047.32,2852.53 1047.32,3898.79 1570.97,3898.79 1570.97,2852.53 2618.3,2852.53 "/>
   <path id="1" class="fil0" d="M5760.26 5469.78l-1047.33 0 0 -1046.27 -523.66 0 0 1046.27 -1047.32 0 0 -2356.47 261.82 0 0 -260.79 2094.64 0 0 260.79 261.83 0 0 2356.47zm-1047.33 -1570.98l0 -521.56 -523.66 0 0 521.56 523.66 0z"/>
   <polygon id="2" class="fil0" points="8902.21,5469.78 6283.91,5469.78 6283.91,2852.53 7331.23,2852.53 7331.23,4945.07 8902.21,4945.07 "/>
   <polygon id="3" class="fil0" points="12044.17,5469.78 9425.87,5469.78 9425.87,2852.53 10473.19,2852.53 10473.19,4945.07 12044.17,4945.07 "/>
   <path class="fil1" d="M13368.38 4037.54c0,-69.3 8.07,-91.09 35.33,-134.71 42.8,-68.45 115.19,-117.98 188.11,-151.97 21.91,-10.21 106.27,-40.31 132.99,-40.31 23.15,0 19.64,55.59 19.62,81.74 -0.02,36.48 3.4,60.89 3.26,98.11 -0.2,51.99 4.4,81.74 46.75,103.67 38.06,19.7 83.33,9.58 112.77,-19.36 18.61,-18.3 20.54,-45.31 20.35,-81.02 -0.19,-37.41 3.3,-62.25 3.25,-98.12 -0.03,-23.14 -2.32,-85.01 16.35,-85.01 26.57,0 109.27,28.57 131.76,38.28 71.42,30.85 147.84,84.98 190.05,150.01 30.93,47.64 37.89,70.13 37.89,141.97 0,29.46 -3,64.8 -12.05,86.05 -45.82,107.71 -162.03,183.27 -271.15,219.33 -88.84,29.37 -283.22,29.37 -372.07,0 -25.45,-8.41 -46.19,-17.67 -69.58,-28.52 -63.87,-29.59 -122.95,-73.1 -165.06,-129.25 -33.22,-44.3 -48.57,-74.4 -48.57,-150.89zm442.45 -1772.31l54.59 0c83.68,0 172.13,39.9 232.16,85.01 27.56,20.7 30.79,25.96 54.78,49.87 164.55,164.02 159.13,442.57 -4.89,604.96 -10.01,9.91 -14.04,14.42 -25.6,23.46 -9.67,7.55 -17.29,14.45 -26.78,22.27 -33.55,27.69 -122.27,73.51 -160.24,74.46l-4.03 150.39c31.26,16.55 61.71,31.57 91.73,48.88l264.53 150.75c29.11,16.65 59.51,35.34 88.62,51.99l696.15 409.09c60.08,35.95 114.76,59.88 149.54,125.13 8.06,15.12 43.57,80.63 43.57,93.77l0 428.36c0,22.53 -56.01,112.84 -76.53,139.28 -32.02,41.26 -319.78,201.31 -394.52,246.38 -30.29,18.26 -60.35,35.02 -91.21,52.67 -29.11,16.65 -59.51,35.34 -88.61,51.99l-274.35 157.29c-84.34,48.56 -241.79,143.01 -316.26,180.77 -10.3,5.23 -13.54,7.8 -22.94,13.03 -42.93,23.84 -73.63,44.74 -131.85,44.74l-53.83 0c-43.47,-0.8 -72.33,-6.12 -123.79,-34.92l-930.7 -537.51c-15.43,-9.29 -30.72,-18.09 -47.35,-27.86 -33.77,-19.86 -63.91,-37.63 -96.54,-57.15 -31.93,-19.11 -63.36,-37.95 -95.7,-57.99 -26.38,-16.35 -55.59,-55.69 -71.15,-82.54 -14.22,-24.56 -36.71,-79.48 -39.2,-114.48 -1.31,-18.47 -2.57,-39.02 -3.41,-60.17l0 -90.41c0.82,-14.56 3.36,-17.7 3.38,-35.55l-0.16 -196.36c-0.3,-35.82 4.54,-35.1 16.4,-58.81 17.31,-34.59 32.17,-68.33 56.54,-97.15 32.39,-38.29 220.63,-142.03 284.19,-180.14l977.06 -563.09c0,-52.82 -3.27,-94.09 -3.27,-147.15 -10.2,-4.89 -24.93,-8.7 -35.97,-13.08 -101.77,-40.33 -185.96,-95.86 -241.85,-193.06 -37.6,-65.39 -62.25,-141.42 -62.25,-225.5 0,-68.33 16.51,-126.04 38.07,-174.46 42.24,-94.79 115.34,-165.36 204.93,-213.63l75.52 -29.12c38.61,-10.98 62.85,-13.81 91.22,-14.42zm-1034.31 1778.85c0,-76.33 125.23,-147.66 251.87,-81.83 101.14,52.56 48.87,186.47 -94.91,186.47 -39.88,0 -77.39,-11.97 -103.34,-27.46 -24.4,-14.57 -53.62,-48.03 -53.62,-77.18zm771.71 -1517.25c0,-134.89 176.95,-228.17 283.76,-123.53 131.98,129.28 6.96,293.56 -100.64,293.56 -66.84,0 -86.6,-10.16 -133.26,-56.4 -26.01,-25.76 -49.86,-63.31 -49.86,-113.63z"/>
  </g>
 </g>
</svg>
